<svg width="35" height="9" viewBox="0 0 35 9" fill="none" xmlns="http://www.w3.org/2000/svg">
<path d="M34.5 1.4721C34.4 1.37659 30.9 1.28109 28.8 1.28109C28.8 1.09008 28.6 0.994571 28.3 0.899066C28.2 0.708055 28 0.612549 27.8 0.612549C27.6 0.612549 27.4 0.708055 27.3 0.899066C27 0.994571 26.8 1.09008 26.8 1.28109C24.8 1.28109 21.3 1.28109 21.2 1.37659C21 1.56761 21.4 1.66311 21.4 1.66311C21.4 1.66311 24.5 2.61817 25.4 2.42716C25.9 2.33165 26.5 2.04513 26.9 1.85412V4.14626C25.9 4.05075 23.6 3.57322 21.2 3.28671L19.8 2.33165C19.8 2.33165 19.3 1.94963 18.8 1.94963C18.7 1.94963 16.5 1.94963 16.4 1.94963C15.9 1.94963 15.4 2.33165 15.4 2.33165L14 3.28671C11.6 3.57322 9.30001 4.05075 8.30001 4.14626V1.94963C8.70001 2.14064 9.20001 2.42716 9.80001 2.52266C10.7 2.71367 13.8 1.75862 13.8 1.75862C13.8 1.75862 14.2 1.66311 14 1.4721C13.8 1.28109 10.3 1.28109 8.30001 1.28109C8.30001 1.09008 8.10001 0.994571 7.80001 0.899066C7.70001 0.708055 7.50001 0.612549 7.30001 0.612549C7.10001 0.612549 6.90001 0.708055 6.80001 0.899066C6.50001 0.994571 6.30001 1.09008 6.30001 1.28109C4.30001 1.28109 0.800006 1.37659 0.600006 1.4721C0.400006 1.66311 0.800006 1.75862 0.800006 1.75862C0.800006 1.75862 4.00001 2.61817 4.80001 2.52266C5.30001 2.42716 5.90001 2.14064 6.30001 1.94963V2.80918V3.09569V5.10131C6.30001 5.10131 6.30001 5.10131 6.30001 5.19682L7.40001 7.39345C7.40001 7.48895 7.50001 7.48895 7.60001 7.48895H8.40001C8.50001 7.48895 8.60001 7.39345 8.60001 7.29794L8.20001 5.86536L11.7 5.48334L11.9 6.24738C11.9 6.34289 12 6.34289 12.1 6.34289H12.4C12.5 6.34289 12.6 6.24738 12.6 6.15188V5.96086L14.8 6.15188C15 6.72491 15.4 7.58446 15.4 7.58446C15.4 7.58446 15.8 8.63502 16.6 8.63502C16.7 8.63502 17.2 8.63502 17.7 8.63502C18.2 8.63502 18.7 8.63502 18.8 8.63502C19.7 8.63502 20 7.58446 20 7.58446C20 7.58446 20.4 6.72491 20.6 6.15188L22.8 5.96086V6.15188C22.8 6.24738 22.9 6.34289 23 6.34289H23.3C23.4 6.34289 23.4 6.24738 23.5 6.24738L23.7 5.48334L27.2 5.86536L26.8 7.29794C26.8 7.39345 26.9 7.48895 27 7.48895H27.8C27.9 7.48895 27.9 7.48895 28 7.39345L29.1 5.19682C29.1 5.19682 29.1 5.19682 29.1 5.10131V4.33727V4.05075V1.94963C29.5 2.14064 30 2.42716 30.6 2.52266C31.5 2.71367 34.6 1.75862 34.6 1.75862C34.6 1.75862 34.7 1.66311 34.5 1.4721Z" fill="white"/>
</svg>
