<svg width="19" height="20" viewBox="0 0 19 20" fill="none" xmlns="http://www.w3.org/2000/svg">
<path d="M17.9176 2.59185L14.2742 8.42962L14.9952 14.9207C15.0205 15.147 14.9414 15.3726 14.7803 15.5337L13.2803 17.0337C13.11 17.2037 12.8679 17.2835 12.6313 17.2439C12.3937 17.2059 12.189 17.0561 12.0806 16.8415L9.54089 11.8083L9.11206 12.2177L10.4615 16.2662C10.5927 16.6591 10.3802 17.0839 9.9873 17.215L7.7373 17.965C7.65857 17.9914 7.57837 18.0038 7.5 18.0038C7.18579 18.0038 6.89319 17.805 6.78845 17.4908C6.65735 17.0978 6.86975 16.673 7.2627 16.5419L8.80115 16.0292L7.53845 12.2408C7.44653 11.965 7.52197 11.6614 7.73218 11.4607L9.23694 10.0248C9.40906 9.86114 9.65002 9.78863 9.8822 9.82855C10.1162 9.86883 10.3173 10.0175 10.4242 10.2295L12.9525 15.24L13.4648 14.7281L12.7548 8.33624C12.7361 8.16851 12.7745 7.99932 12.8639 7.8565L16.6575 1.77886C16.7131 1.69463 16.7043 1.60711 16.649 1.55181C16.5934 1.49651 16.5066 1.48663 16.441 1.5313L10.1228 5.15423C10.0093 5.21941 9.88074 5.25347 9.75 5.25347H3.31055L2.85388 5.71014L7.76331 7.55108C8.00208 7.6408 8.17896 7.84551 8.23315 8.09454C8.28699 8.34393 8.21082 8.60357 8.03027 8.78375L6.53027 10.2837C6.35962 10.4548 6.11829 10.5335 5.87659 10.4932L2.25 9.88897V10.9429L3.75 12.4429L3.96973 12.2232C4.2627 11.9302 4.7373 11.9302 5.03027 12.2232C5.32324 12.5162 5.32324 12.9908 5.03027 13.2837L4.81055 13.5035L5.25 13.9429L5.46973 13.7232C5.7627 13.4302 6.2373 13.4302 6.53027 13.7232C6.82324 14.0162 6.82324 14.4908 6.53027 14.7837L5.78027 15.5337C5.63379 15.6802 5.44189 15.7535 5.25 15.7535C5.05811 15.7535 4.86621 15.6802 4.71973 15.5337L0.969727 11.7837C0.829102 11.6431 0.75 11.4523 0.75 11.2535V9.00347C0.75 8.78301 0.847046 8.57354 1.01514 8.43108C1.18323 8.28863 1.40588 8.22601 1.62341 8.26373L5.74255 8.95037L6.14612 8.54681L1.23669 6.70586C0.997925 6.61614 0.821045 6.41143 0.766846 6.16241C0.713013 5.91302 0.789185 5.65338 0.969727 5.4732L2.46973 3.9732C2.61035 3.83257 2.80115 3.75347 3 3.75347H9.55042L15.6522 0.256524C16.2664 -0.154731 17.15 -0.0679387 17.7096 0.491265C18.2688 1.05047 18.3563 1.93414 17.9176 2.59185ZM1.71973 16.7232L0.219727 18.2232C-0.0732422 18.5162 -0.0732422 18.9908 0.219727 19.2837C0.366211 19.4302 0.558105 19.5035 0.75 19.5035C0.941895 19.5035 1.13379 19.4302 1.28027 19.2837L2.78027 17.7837C3.07324 17.4908 3.07324 17.0162 2.78027 16.7232C2.4873 16.4302 2.0127 16.4302 1.71973 16.7232ZM0.75 16.5035C1.16423 16.5035 1.5 16.1677 1.5 15.7535C1.5 15.3392 1.16423 15.0035 0.75 15.0035C0.33577 15.0035 0 15.3392 0 15.7535C0 16.1677 0.33577 16.5035 0.75 16.5035Z" fill="white"/>
</svg>
