<svg width="22" height="16" viewBox="0 0 22 16" fill="none" xmlns="http://www.w3.org/2000/svg">
<path d="M8.09835 10.5459C6.63388 9.08148 6.63388 6.70711 8.09835 5.24264M13.4017 5.24264C14.8661 6.70711 14.8661 9.08148 13.4017 10.5459M5.97703 12.6673C3.34099 10.0312 3.34099 5.75736 5.97703 3.12132M15.523 3.12132C18.159 5.75736 18.159 10.0312 15.523 12.6673M3.85571 14.7886C0.0480974 10.981 0.0480967 4.80761 3.85571 1M17.6443 1C21.4519 4.80761 21.4519 10.981 17.6443 14.7886M10.75 7.89429H10.7575V7.90179H10.75V7.89429ZM11.125 7.89429C11.125 8.1014 10.9571 8.26929 10.75 8.26929C10.5429 8.26929 10.375 8.1014 10.375 7.89429C10.375 7.68718 10.5429 7.51929 10.75 7.51929C10.9571 7.51929 11.125 7.68718 11.125 7.89429Z" stroke="white" stroke-width="1.5" stroke-linecap="round" stroke-linejoin="round"/>
</svg>
